<?xml version="1.0" encoding="us-ascii" standalone="no"?><svg xmlns="http://www.w3.org/2000/svg" xmlns:xlink="http://www.w3.org/1999/xlink" contentStyleType="text/css" height="696px" preserveAspectRatio="none" style="width:1779px;height:696px;" version="1.1" viewBox="0 0 1779 696" width="1779px" zoomAndPan="magnify"><defs><linearGradient id="gde7nhghxhjau0" x1="0%" x2="100%" y1="0%" y2="100%"><stop offset="0%" stop-color="#FFFFFF"/><stop offset="100%" stop-color="#AAAAFF"/></linearGradient><filter height="300%" id="fde7nhghxhjau" width="300%" x="-1" y="-1"><feGaussianBlur result="blurOut" stdDeviation="2.0"/><feColorMatrix in="blurOut" result="blurOut2" type="matrix" values="0 0 0 0 0 0 0 0 0 0 0 0 0 0 0 0 0 0 .4 0"/><feOffset dx="4.0" dy="4.0" in="blurOut2" result="blurOut3"/><feBlend in="SourceGraphic" in2="blurOut3" mode="normal"/></filter></defs><g><rect fill="url(#gde7nhghxhjau0)" height="696" style="stroke:none;stroke-width:1.0;" width="1779" x="0" y="0"/><rect fill="url(#gde7nhghxhjau0)" height="25.8594" id="_title" style="stroke:none;stroke-width:1.0;" width="306" x="729.5" y="5"/><text fill="#000000" font-family="sans-serif" font-size="14" font-weight="bold" lengthAdjust="spacing" textLength="296" x="734.5" y="21.6553">VSaGCR Microscopy System Architecture</text><!--cluster Camera Module--><g id="cluster_Camera Module"><path d="M906.5,210.5635 L1011.5,210.5635 A3.75,3.75 0 0 1 1014,213.0635 L1021,232.4229 L1342.5,232.4229 A2.5,2.5 0 0 1 1345,234.9229 L1345,327.0635 A2.5,2.5 0 0 1 1342.5,329.5635 L906.5,329.5635 A2.5,2.5 0 0 1 904,327.0635 L904,213.0635 A2.5,2.5 0 0 1 906.5,210.5635 " fill="none" filter="url(#fde7nhghxhjau)" style="stroke:#000000;stroke-width:1.5;"/><line style="stroke:#000000;stroke-width:1.5;" x1="904" x2="1021" y1="232.4229" y2="232.4229"/><text fill="#000000" font-family="sans-serif" font-size="14" font-weight="bold" lengthAdjust="spacing" textLength="104" x="908" y="224.2188">Camera Module</text></g><!--cluster LED Module--><g id="cluster_LED Module"><path d="M8.5,210.5635 L89.5,210.5635 A3.75,3.75 0 0 1 92,213.0635 L99,232.4229 L412.5,232.4229 A2.5,2.5 0 0 1 415,234.9229 L415,327.0635 A2.5,2.5 0 0 1 412.5,329.5635 L8.5,329.5635 A2.5,2.5 0 0 1 6,327.0635 L6,213.0635 A2.5,2.5 0 0 1 8.5,210.5635 " fill="none" filter="url(#fde7nhghxhjau)" style="stroke:#000000;stroke-width:1.5;"/><line style="stroke:#000000;stroke-width:1.5;" x1="6" x2="99" y1="232.4229" y2="232.4229"/><text fill="#000000" font-family="sans-serif" font-size="14" font-weight="bold" lengthAdjust="spacing" textLength="80" x="10" y="224.2188">LED Module</text></g><!--cluster Battery Module--><g id="cluster_Battery Module"><path d="M441.5,210.5635 L554.5,210.5635 A3.75,3.75 0 0 1 557,213.0635 L564,232.4229 L877.5,232.4229 A2.5,2.5 0 0 1 880,234.9229 L880,327.0635 A2.5,2.5 0 0 1 877.5,329.5635 L441.5,329.5635 A2.5,2.5 0 0 1 439,327.0635 L439,213.0635 A2.5,2.5 0 0 1 441.5,210.5635 " fill="none" filter="url(#fde7nhghxhjau)" style="stroke:#000000;stroke-width:1.5;"/><line style="stroke:#000000;stroke-width:1.5;" x1="439" x2="564" y1="232.4229" y2="232.4229"/><text fill="#000000" font-family="sans-serif" font-size="14" font-weight="bold" lengthAdjust="spacing" textLength="112" x="443" y="224.2188">Battery Module</text></g><!--cluster Web Interface--><g id="cluster_Web Interface"><path d="M1313.5,43.5635 L1418.5,43.5635 A3.75,3.75 0 0 1 1421,46.0635 L1428,65.4229 L1685.5,65.4229 A2.5,2.5 0 0 1 1688,67.9229 L1688,160.0635 A2.5,2.5 0 0 1 1685.5,162.5635 L1313.5,162.5635 A2.5,2.5 0 0 1 1311,160.0635 L1311,46.0635 A2.5,2.5 0 0 1 1313.5,43.5635 " fill="none" filter="url(#fde7nhghxhjau)" style="stroke:#000000;stroke-width:1.5;"/><line style="stroke:#000000;stroke-width:1.5;" x1="1311" x2="1428" y1="65.4229" y2="65.4229"/><text fill="#000000" font-family="sans-serif" font-size="14" font-weight="bold" lengthAdjust="spacing" textLength="104" x="1315" y="57.2188">Web Interface</text></g><!--cluster Event Bus--><g id="cluster_Event Bus"><path d="M926.5,392.5635 L999.5,392.5635 A3.75,3.75 0 0 1 1002,395.0635 L1009,414.4229 L1282.5,414.4229 A2.5,2.5 0 0 1 1285,416.9229 L1285,509.0635 A2.5,2.5 0 0 1 1282.5,511.5635 L926.5,511.5635 A2.5,2.5 0 0 1 924,509.0635 L924,395.0635 A2.5,2.5 0 0 1 926.5,392.5635 " fill="none" filter="url(#fde7nhghxhjau)" style="stroke:#000000;stroke-width:1.5;"/><line style="stroke:#000000;stroke-width:1.5;" x1="924" x2="1009" y1="414.4229" y2="414.4229"/><text fill="#000000" font-family="sans-serif" font-size="14" font-weight="bold" lengthAdjust="spacing" textLength="72" x="928" y="406.2188">Event Bus</text></g><!--entity camera--><g id="elem_camera"><rect fill="#F1F1F1" filter="url(#fde7nhghxhjau)" height="45.8594" rx="2.5" ry="2.5" style="stroke:#181818;stroke-width:0.5;" width="176" x="920" y="256.0635"/><rect fill="#F1F1F1" height="10" style="stroke:#181818;stroke-width:0.5;" width="15" x="1076" y="261.0635"/><rect fill="#F1F1F1" height="2" style="stroke:#181818;stroke-width:0.5;" width="4" x="1074" y="263.0635"/><rect fill="#F1F1F1" height="2" style="stroke:#181818;stroke-width:0.5;" width="4" x="1074" y="267.0635"/><text fill="#000000" font-family="sans-serif" font-size="14" lengthAdjust="spacing" textLength="136" x="935" y="287.7188">camera_service.py</text></g><g id="elem_GMN4"><path d="M1131.5,244.5635 L1131.5,275.0635 L1096.02,279.0635 L1131.5,283.0635 L1131.5,313.4697 A0,0 0 0 0 1131.5,313.4697 L1328.5,313.4697 A0,0 0 0 0 1328.5,313.4697 L1328.5,254.5635 L1318.5,244.5635 L1131.5,244.5635 A0,0 0 0 0 1131.5,244.5635 " fill="#FEFFDD" filter="url(#fde7nhghxhjau)" style="stroke:#181818;stroke-width:0.5;"/><path d="M1318.5,244.5635 L1318.5,254.5635 L1328.5,254.5635 L1318.5,244.5635 " fill="#FEFFDD" style="stroke:#181818;stroke-width:0.5;"/><text fill="#000000" font-family="sans-serif" font-size="13" lengthAdjust="spacing" textLength="176" x="1137.5" y="260.3862">Single camera instance</text><text fill="#000000" font-family="sans-serif" font-size="13" lengthAdjust="spacing" textLength="120" x="1137.5" y="275.1128">MJPEG streaming</text><text fill="#000000" font-family="sans-serif" font-size="13" lengthAdjust="spacing" textLength="120" x="1137.5" y="289.8394">Capture to disk</text><text fill="#000000" font-family="sans-serif" font-size="13" lengthAdjust="spacing" textLength="80" x="1137.5" y="304.5659">Simple API</text></g><!--entity led--><g id="elem_led"><rect fill="#F1F1F1" filter="url(#fde7nhghxhjau)" height="45.8594" rx="2.5" ry="2.5" style="stroke:#181818;stroke-width:0.5;" width="152" x="22" y="256.0635"/><rect fill="#F1F1F1" height="10" style="stroke:#181818;stroke-width:0.5;" width="15" x="154" y="261.0635"/><rect fill="#F1F1F1" height="2" style="stroke:#181818;stroke-width:0.5;" width="4" x="152" y="263.0635"/><rect fill="#F1F1F1" height="2" style="stroke:#181818;stroke-width:0.5;" width="4" x="152" y="267.0635"/><text fill="#000000" font-family="sans-serif" font-size="14" lengthAdjust="spacing" textLength="112" x="37" y="287.7188">led_service.py</text></g><g id="elem_GMN9"><path d="M209.5,244.5635 L209.5,275.0635 L174.04,279.0635 L209.5,283.0635 L209.5,313.4697 A0,0 0 0 0 209.5,313.4697 L398.5,313.4697 A0,0 0 0 0 398.5,313.4697 L398.5,254.5635 L388.5,244.5635 L209.5,244.5635 A0,0 0 0 0 209.5,244.5635 " fill="#FEFFDD" filter="url(#fde7nhghxhjau)" style="stroke:#181818;stroke-width:0.5;"/><path d="M388.5,244.5635 L388.5,254.5635 L398.5,254.5635 L388.5,244.5635 " fill="#FEFFDD" style="stroke:#181818;stroke-width:0.5;"/><text fill="#000000" font-family="sans-serif" font-size="13" lengthAdjust="spacing" textLength="144" x="215.5" y="260.3862">Event queue driven</text><text fill="#000000" font-family="sans-serif" font-size="13" lengthAdjust="spacing" textLength="168" x="215.5" y="275.1128">System status display</text><text fill="#000000" font-family="sans-serif" font-size="13" lengthAdjust="spacing" textLength="168" x="215.5" y="289.8394">Battery level display</text><text fill="#000000" font-family="sans-serif" font-size="13" lengthAdjust="spacing" textLength="160" x="215.5" y="304.5659">Camera state display</text></g><!--entity battery--><g id="elem_battery"><rect fill="#F1F1F1" filter="url(#fde7nhghxhjau)" height="45.8594" rx="2.5" ry="2.5" style="stroke:#181818;stroke-width:0.5;" width="184" x="455" y="256.0635"/><rect fill="#F1F1F1" height="10" style="stroke:#181818;stroke-width:0.5;" width="15" x="619" y="261.0635"/><rect fill="#F1F1F1" height="2" style="stroke:#181818;stroke-width:0.5;" width="4" x="617" y="263.0635"/><rect fill="#F1F1F1" height="2" style="stroke:#181818;stroke-width:0.5;" width="4" x="617" y="267.0635"/><text fill="#000000" font-family="sans-serif" font-size="14" lengthAdjust="spacing" textLength="144" x="470" y="287.7188">battery_monitor.py</text></g><g id="elem_GMN14"><path d="M674.5,244.5635 L674.5,275.0635 L639.36,279.0635 L674.5,283.0635 L674.5,313.4697 A0,0 0 0 0 674.5,313.4697 L863.5,313.4697 A0,0 0 0 0 863.5,313.4697 L863.5,254.5635 L853.5,244.5635 L674.5,244.5635 A0,0 0 0 0 674.5,244.5635 " fill="#FEFFDD" filter="url(#fde7nhghxhjau)" style="stroke:#181818;stroke-width:0.5;"/><path d="M853.5,244.5635 L853.5,254.5635 L863.5,254.5635 L853.5,244.5635 " fill="#FEFFDD" style="stroke:#181818;stroke-width:0.5;"/><text fill="#000000" font-family="sans-serif" font-size="13" lengthAdjust="spacing" textLength="136" x="680.5" y="260.3862">UPS-Lite v1.3 I2C</text><text fill="#000000" font-family="sans-serif" font-size="13" lengthAdjust="spacing" textLength="168" x="680.5" y="275.1128">Voltage/level polling</text><text fill="#000000" font-family="sans-serif" font-size="13" lengthAdjust="spacing" textLength="128" x="680.5" y="289.8394">Events on change</text><text fill="#000000" font-family="sans-serif" font-size="13" lengthAdjust="spacing" textLength="152" x="680.5" y="304.5659">Auto-shutdown logic</text></g><!--entity web--><g id="elem_web"><rect fill="#F1F1F1" filter="url(#fde7nhghxhjau)" height="45.8594" rx="2.5" ry="2.5" style="stroke:#181818;stroke-width:0.5;" width="144" x="1327" y="89.0635"/><rect fill="#F1F1F1" height="10" style="stroke:#181818;stroke-width:0.5;" width="15" x="1451" y="94.0635"/><rect fill="#F1F1F1" height="2" style="stroke:#181818;stroke-width:0.5;" width="4" x="1449" y="96.0635"/><rect fill="#F1F1F1" height="2" style="stroke:#181818;stroke-width:0.5;" width="4" x="1449" y="100.0635"/><text fill="#000000" font-family="sans-serif" font-size="14" lengthAdjust="spacing" textLength="104" x="1342" y="120.7188">web_server.py</text></g><g id="elem_GMN19"><path d="M1506.5,77.5635 L1506.5,108.0635 L1471.36,112.0635 L1506.5,116.0635 L1506.5,146.4697 A0,0 0 0 0 1506.5,146.4697 L1671.5,146.4697 A0,0 0 0 0 1671.5,146.4697 L1671.5,87.5635 L1661.5,77.5635 L1506.5,77.5635 A0,0 0 0 0 1506.5,77.5635 " fill="#FEFFDD" filter="url(#fde7nhghxhjau)" style="stroke:#181818;stroke-width:0.5;"/><path d="M1661.5,77.5635 L1661.5,87.5635 L1671.5,87.5635 L1661.5,77.5635 " fill="#FEFFDD" style="stroke:#181818;stroke-width:0.5;"/><text fill="#000000" font-family="sans-serif" font-size="13" lengthAdjust="spacing" textLength="136" x="1512.5" y="93.3862">Flask HTTP server</text><text fill="#000000" font-family="sans-serif" font-size="13" lengthAdjust="spacing" textLength="144" x="1512.5" y="108.1128">Static HTML/CSS/JS</text><text fill="#000000" font-family="sans-serif" font-size="13" lengthAdjust="spacing" textLength="144" x="1512.5" y="122.8394">REST API endpoints</text><text fill="#000000" font-family="sans-serif" font-size="13" lengthAdjust="spacing" textLength="144" x="1512.5" y="137.5659">Gallery management</text></g><!--entity events--><g id="elem_events"><rect fill="#F1F1F1" filter="url(#fde7nhghxhjau)" height="45.8594" rx="2.5" ry="2.5" style="stroke:#181818;stroke-width:0.5;" width="136" x="940" y="438.0635"/><rect fill="#F1F1F1" height="10" style="stroke:#181818;stroke-width:0.5;" width="15" x="1056" y="443.0635"/><rect fill="#F1F1F1" height="2" style="stroke:#181818;stroke-width:0.5;" width="4" x="1054" y="445.0635"/><rect fill="#F1F1F1" height="2" style="stroke:#181818;stroke-width:0.5;" width="4" x="1054" y="449.0635"/><text fill="#000000" font-family="sans-serif" font-size="14" lengthAdjust="spacing" textLength="96" x="955" y="469.7188">event_bus.py</text></g><g id="elem_GMN24"><path d="M1111.5,426.5635 L1111.5,457.0635 L1076.25,461.0635 L1111.5,465.0635 L1111.5,495.4697 A0,0 0 0 0 1111.5,495.4697 L1268.5,495.4697 A0,0 0 0 0 1268.5,495.4697 L1268.5,436.5635 L1258.5,426.5635 L1111.5,426.5635 A0,0 0 0 0 1111.5,426.5635 " fill="#FEFFDD" filter="url(#fde7nhghxhjau)" style="stroke:#181818;stroke-width:0.5;"/><path d="M1258.5,426.5635 L1258.5,436.5635 L1268.5,436.5635 L1258.5,426.5635 " fill="#FEFFDD" style="stroke:#181818;stroke-width:0.5;"/><text fill="#000000" font-family="sans-serif" font-size="13" lengthAdjust="spacing" textLength="112" x="1117.5" y="442.3862">Simple pub/sub</text><text fill="#000000" font-family="sans-serif" font-size="13" lengthAdjust="spacing" textLength="136" x="1117.5" y="457.1128">Thread-safe queue</text><text fill="#000000" font-family="sans-serif" font-size="13" lengthAdjust="spacing" textLength="96" x="1117.5" y="471.8394">Typed events</text><text fill="#000000" font-family="sans-serif" font-size="13" lengthAdjust="spacing" textLength="112" x="1117.5" y="486.5659">No persistence</text></g><g id="elem_GMN33"><path d="M925.5,558.5635 L925.5,671.6494 A0,0 0 0 0 925.5,671.6494 L1090.5,671.6494 A0,0 0 0 0 1090.5,671.6494 L1090.5,568.5635 L1080.5,558.5635 L1012,558.5635 L1008,484.1635 L1004,558.5635 L925.5,558.5635 A0,0 0 0 0 925.5,558.5635 " fill="#FEFFDD" filter="url(#fde7nhghxhjau)" style="stroke:#181818;stroke-width:0.5;"/><path d="M1080.5,558.5635 L1080.5,568.5635 L1090.5,568.5635 L1080.5,558.5635 " fill="#FEFFDD" style="stroke:#181818;stroke-width:0.5;"/><text fill="#000000" font-family="sans-serif" font-size="13" lengthAdjust="spacing" textLength="96" x="931.5" y="574.3862">Event types:</text><text fill="#000000" font-family="sans-serif" font-size="13" lengthAdjust="spacing" textLength="112" x="931.5" y="589.1128">- CAMERA_READY</text><text fill="#000000" font-family="sans-serif" font-size="13" lengthAdjust="spacing" textLength="112" x="931.5" y="603.8394">- CAMERA_ERROR</text><text fill="#000000" font-family="sans-serif" font-size="13" lengthAdjust="spacing" textLength="128" x="931.5" y="618.5659">- FRAME_CAPTURED</text><text fill="#000000" font-family="sans-serif" font-size="13" lengthAdjust="spacing" textLength="104" x="931.5" y="633.2925">- BATTERY_LOW</text><text fill="#000000" font-family="sans-serif" font-size="13" lengthAdjust="spacing" textLength="144" x="931.5" y="648.019">- BATTERY_CHARGING</text><text fill="#000000" font-family="sans-serif" font-size="13" lengthAdjust="spacing" textLength="112" x="931.5" y="662.7456">- SYSTEM_ERROR</text></g><!--link camera to events--><g id="link_camera_events"><path d="M1008,302.1335 C1008,336.6835 1008,397.1535 1008,431.8135 " fill="none" id="camera-to-events" style="stroke:#181818;stroke-width:1.0;"/><polygon fill="#181818" points="1008,437.8135,1012,428.8135,1008,432.8135,1004,428.8135,1008,437.8135" style="stroke:#181818;stroke-width:1.0;"/><text fill="#000000" font-family="sans-serif" font-size="13" lengthAdjust="spacing" textLength="160" x="1017" y="357.3862">publish camera_ready</text><text fill="#000000" font-family="sans-serif" font-size="13" lengthAdjust="spacing" textLength="176" x="1009" y="372.1128">publish frame_captured</text></g><!--link battery to events--><g id="link_battery_events"><path d="M585.78,302.1035 C606.55,313.4535 632.78,327.0735 657,337.5635 C753.09,379.1835 862.6418,415.4682 934.1918,437.7682 " fill="none" id="battery-to-events" style="stroke:#181818;stroke-width:1.0;"/><polygon fill="#181818" points="939.92,439.5535,932.5179,433.0567,935.1465,438.0657,930.1374,440.6943,939.92,439.5535" style="stroke:#181818;stroke-width:1.0;"/><text fill="#000000" font-family="sans-serif" font-size="13" lengthAdjust="spacing" textLength="152" x="772" y="357.3862">publish battery_low</text><text fill="#000000" font-family="sans-serif" font-size="13" lengthAdjust="spacing" textLength="192" x="752" y="372.1128">publish charging_changed</text></g><!--reverse link led to events--><g id="link_led_events"><path d="M132.2588,305.6651 C150.0488,318.0151 168.81,329.1235 192,337.5635 C457.03,434.0035 797.03,454.5635 939.94,458.9135 " fill="none" id="led-backto-events" style="stroke:#181818;stroke-width:1.0;"/><polygon fill="#181818" points="127.33,302.2435,132.4421,310.6617,131.4373,305.0948,137.0042,304.09,127.33,302.2435" style="stroke:#181818;stroke-width:1.0;"/><text fill="#000000" font-family="sans-serif" font-size="13" lengthAdjust="spacing" textLength="160" x="300" y="364.8862">subscribe all events</text></g><!--link web to camera--><g id="link_web_camera"><path d="M1326.92,129.0135 C1267.81,143.6435 1182.95,168.2635 1114,202.5635 C1084.67,217.1535 1059.233,235.6701 1038.633,252.2601 " fill="none" id="web-to-camera" style="stroke:#181818;stroke-width:1.0;"/><polygon fill="#181818" points="1033.96,256.0235,1043.4784,253.4938,1037.8542,252.8873,1038.4606,247.2631,1033.96,256.0235" style="stroke:#181818;stroke-width:1.0;"/><text fill="#000000" font-family="sans-serif" font-size="13" lengthAdjust="spacing" textLength="80" x="1167" y="190.3862">HTTP calls</text></g><!--link web to events--><g id="link_web_events"><path d="M1400.58,135.3935 C1402.47,180.2235 1399.95,281.6835 1345,337.5635 C1296.4,386.9835 1262.36,365.0935 1194,376.5635 C1172.01,380.2535 1114.53,375.8835 1094,384.5635 C1066.55,396.1735 1045.7248,415.6178 1029.8948,433.4378 " fill="none" id="web-to-events" style="stroke:#181818;stroke-width:1.0;"/><polygon fill="#181818" points="1025.91,437.9235,1034.8776,433.8514,1029.2306,434.1854,1028.8967,428.5384,1025.91,437.9235" style="stroke:#181818;stroke-width:1.0;"/><text fill="#000000" font-family="sans-serif" font-size="13" lengthAdjust="spacing" textLength="152" x="1399" y="282.8862">publish user_action</text></g><!--reverse link web to events--><g id="link_web_events"><path d="M1436.2282,138.5828 C1453.0782,149.7728 1469.27,159.8835 1489,170.5635 C1519.44,187.0335 1541.21,173.4935 1560,202.5635 C1592.56,252.9535 1599.28,292.2035 1560,337.5635 C1520.32,383.3935 1350.37,370.9835 1290,376.5635 C1268.3,378.5735 1114.24,376.4635 1094,384.5635 C1066.15,395.7135 1041.23,419.9735 1025.48,438.0035 " fill="none" id="web-backto-events" style="stroke:#181818;stroke-width:1.0;"/><polygon fill="#181818" points="1431.23,135.2635,1436.5145,143.5746,1435.3952,138.0296,1440.9402,136.9103,1431.23,135.2635" style="stroke:#181818;stroke-width:1.0;"/><text fill="#000000" font-family="sans-serif" font-size="13" lengthAdjust="spacing" textLength="184" x="1587" y="282.8862">subscribe system_status</text></g><rect fill="url(#gde7nhghxhjau0)" height="11.3281" style="stroke:none;stroke-width:1.0;" width="126" x="819.5" y="677.6494"/><text fill="#888888" font-family="sans-serif" font-size="10" lengthAdjust="spacing" textLength="126" x="819.5" y="685.9746">&#65533;&#65533;2025 Sean Donnellan</text><!--SRC=[TLJRJjj047ttLqpfGvzC2bLVK5N961D0128xW51RMPlrE5cntdMzww2ewgTL_QJ-GiTt4yBABpbdTsREp9byU2SKbsM2S7WuQJwHiHMQYR5RYQx5B9VCuc5UPj9nhB0IuJvYKp-4cU25DbpdMuYsXcw2L_2riCXjMQ2JQcsnW7z__z1t_F7uCqJ859nffL1AfXpp95JE2fR1AUDFgqANAl6rr0MyJzDqmbWwkcBMBD7FGgtWo75okaz5me7FCYmOp7HIIZo0NmxG-SPhD3POR0IdqhS_W1beqFg6eigW4Akr1PsEYUf4b8H4DYW8PInJ77jwTZKFfc1iWIoZcptkixoI3LP38ipJA1nr4C6RNzOGggHEx_mUoRWEpdOrI4ns1H2qf_eEhKwmGMNXPuabGb88-ZMKqKo8nDZIL1NIMBSzUyeipMfBmJOeNx5jbwkt-8BSAwQBjIDesS1nffMmkkX4jV0UOMEcEdVpoBqcTy7cwF0JN1xxFNElfQNKawRwN4iv7apT50DQ0LypjHecwPLMksPTMZAM0gbNWh-jwW6NSAcee9JnGTGpBkifOQ-7a3rQEhGwvvAP9xXOBERGF1rcH0qMdAZPzSIFeibLr5DX42qg3rN5vLgGe9wQCYchVcTCKQKPYNrRHMEGqzBq2h12ucLfEW4rOFPe614ZN-VbScBAGTrYJOkHk8Qbs1XnOBOv9hjHRZJaM1X1vkoMR5nukuIk-xLz22TLHYdCkbtGk4gt_QuwDAK_2unviuo9qvfeVuJEab8_3m789CMA_1CtRaaSMZ3uuhh3Sv9hU26M2DJvJX1Dk4xILdpI39ZJZO5xLK191eWPjqAh-j8RQKozkt6pkuvJZsMfhTNPpboQyLfgj3cf0HTyRnQ4NXm6tjdZIoW8mzkmXSv3mcBVco_kmk2i1K-znI887-FhsuSTnB_mmkdbpRI5eyTe4SpQWFtu_WC0]--></g></svg>